# xmcd CD database file
# Copyright (C) 1993-1998 Ti Kan
#
# Track frame offsets:
# 150
# 15888
# 28440
# 42230
# 58330
# 73122
# 87888
# 97035
# 112528
# 129690
# 148474
# 168378
# 178261
# 198798
#
# Disc length: 2782 seconds
#
# Revision: 0
# Processed by: cddbd v1.4b41PL1 Copyright (c) Steve Scherf et al.
# Submitted via: inCDius 1.1b8
#
DISCID=c80adc0e
DTITLE=Mystic Knights of the C -  "Mystic Knights of the C"
DYEAR=1900
DGENRE=
TTITLE0=I Found a New Love
TTITLE1=Key to the Highway
TTITLE2=Pack Fair and Square
TTITLE3=Mucho Mojo
TTITLE4=I'm Gonna Booglerize You
TTITLE5=Devil's Diner
TTITLE6=Skinny
TTITLE7=Trailer of Delights
TTITLE8=Help Me
TTITLE9=Bad Juju
TTITLE10=Everybody's Cryin' Mercy
TTITLE11=Reach Way Back
TTITLE12=Honey Bee
TTITLE13=The Mystic Hour
EXTD=
EXTT0=
EXTT1=
EXTT2=
EXTT3=
EXTT4=
EXTT5=
EXTT6=
EXTT7=
EXTT8=
EXTT9=
EXTT10=
EXTT11=
EXTT12=
EXTT13=
PLAYORDER=
